<svg xmlns="http://www.w3.org/2000/svg" width="800" height="800" viewBox="0 0 800 800">
  <defs>
    <linearGradient id="g" x1="0" y1="0" x2="800" y2="800" gradientUnits="userSpaceOnUse">
      <stop stop-color="#7C3AED"/>
      <stop offset="1" stop-color="#06B6D4"/>
    </linearGradient>
  </defs>
  <rect width="800" height="800" rx="48" fill="#0B1220"/>
  <rect x="80" y="80" width="640" height="640" rx="28" fill="rgba(255,255,255,0.03)" stroke="rgba(255,255,255,0.10)" stroke-width="2"/>
  <rect x="140" y="140" width="520" height="520" rx="22" fill="white" opacity="0.95"/>
  <g fill="#0B1220" opacity="0.92">
    <rect x="170" y="170" width="140" height="140" rx="14"/>
    <rect x="490" y="170" width="140" height="140" rx="14"/>
    <rect x="170" y="490" width="140" height="140" rx="14"/>
    <rect x="210" y="210" width="60" height="60" rx="8" fill="url(#g)"/>
    <rect x="530" y="210" width="60" height="60" rx="8" fill="url(#g)"/>
    <rect x="210" y="530" width="60" height="60" rx="8" fill="url(#g)"/>
    <!-- decorative blocks -->
    <rect x="360" y="210" width="36" height="36" rx="6"/>
    <rect x="410" y="210" width="36" height="36" rx="6"/>
    <rect x="360" y="260" width="36" height="36" rx="6"/>
    <rect x="430" y="260" width="56" height="56" rx="10" fill="url(#g)"/>
    <rect x="360" y="340" width="56" height="56" rx="10"/>
    <rect x="430" y="340" width="36" height="36" rx="6"/>
    <rect x="480" y="340" width="36" height="36" rx="6"/>
    <rect x="360" y="410" width="36" height="36" rx="6"/>
    <rect x="410" y="410" width="56" height="56" rx="10" fill="url(#g)"/>
    <rect x="480" y="420" width="46" height="46" rx="10"/>
    <rect x="360" y="490" width="56" height="56" rx="10" fill="url(#g)"/>
    <rect x="430" y="500" width="36" height="36" rx="6"/>
    <rect x="480" y="500" width="36" height="36" rx="6"/>
  </g>
  <text x="400" y="720" text-anchor="middle" font-family="Inter,system-ui,Segoe UI,Roboto,Arial" font-size="22" fill="rgba(255,255,255,0.78)" font-weight="700">Replace with your eSewa QR</text>
</svg>
